<svg version="1.1" xmlns="http://www.w3.org/2000/svg" xmlns:xlink="http://www.w3.org/1999/xlink" width="700" height="700" viewBox="597.5,114,700,700"><defs><clipPath id="clip-1"><rect x="697.5" y="214" width="500" height="500" id="clip-1" fill="none"/></clipPath><clipPath id="clip-2"><path d="M1058.81,394.78c0.61781,-2.52297 1.41312,-4.99914 2.38,-7.41c1.53407,-0.45824 3.10244,-0.79264 4.69,-1c3.23428,2.86637 5.89475,6.32091 7.84,10.18c4.29,-4.34 12.5,-8.73 17.5,-10.33c1.69147,-0.10666 3.38786,0.10708 5,0.63c-3.41,10.76 -6.89,21.58 -0.72,24.36c-0.11,5.11 0.18,11.45 0.44,17.86c-5.83,-0.64 -28.95,-1.75 -38.34,0.31c-0.48,-6.5 -0.65,-12 -0.62,-16.75c-4.37,-5.57 0.01,-13.15 1.83,-17.85z" id="clip-2" fill="none"/></clipPath><linearGradient x1="5186.29248" y1="661.14545" x2="5761.9786" y2="762.00885" gradientUnits="userSpaceOnUse" id="color-1"><stop offset="0" stop-color="#cfcfcf"/><stop offset="1" stop-color="#000000"/></linearGradient></defs><g id="document" fill="#ffffff" fill-rule="nonzero" stroke="#000000" stroke-width="0" stroke-linecap="butt" stroke-linejoin="miter" stroke-miterlimit="10" stroke-dasharray="" stroke-dashoffset="0" font-family="none" font-weight="none" font-size="none" text-anchor="none" style="mix-blend-mode: normal"><rect x="597.5" y="81.42857" transform="scale(1,1.4)" width="700" height="500" id="Shape 1 1" vector-effect="non-scaling-stroke"/></g><g fill="none" fill-rule="nonzero" stroke="none" stroke-width="1" stroke-linecap="butt" stroke-linejoin="miter" stroke-miterlimit="10" stroke-dasharray="" stroke-dashoffset="0" font-family="none" font-weight="none" font-size="none" text-anchor="none" style="mix-blend-mode: normal"><g><g id="stage"><g id="layer1 1"><g clip-path="url(#clip-1)" id="Group 1"><g id="Group 1"><rect x="697.5" y="596.4" width="500" height="0.25" id="Shape 1" fill="#ebebeb"/><rect x="749.96" y="605.92" width="33.12" height="0.25" id="Shape 1" fill="#ebebeb"/><rect x="850.94" y="603.21" width="26.39" height="0.25" id="Shape 1" fill="#ebebeb"/><rect x="787.47" y="611.82" width="45.92" height="0.25" id="Shape 1" fill="#ebebeb"/><rect x="1125.8" y="613.53" width="21.6" height="0.25" id="Shape 1" fill="#ebebeb"/><rect x="1088.97" y="613.53" width="31.97" height="0.25" id="Shape 1" fill="#ebebeb"/><rect x="974.71" y="609.31" width="55.12" height="0.25" id="Shape 1" fill="#ebebeb"/><path d="M934.5,551.8h-193.09c-3.14964,-0.00552 -5.7,-2.56036 -5.7,-5.71v-271.43c0.02741,-3.13011 2.56978,-5.65464 5.7,-5.66h193.09c3.15355,0 5.71,2.55645 5.71,5.71v271.38c0,3.15355 -2.55645,5.71 -5.71,5.71zM741.41,269.2c-3.01157,0.00552 -5.45001,2.44843 -5.45,5.46v271.43c-0.00001,3.01157 2.43843,5.45448 5.45,5.46h193.09c3.01319,-0.0055 5.4545,-2.44681 5.46,-5.46v-271.43c-0.0055,-3.01319 -2.44681,-5.4545 -5.46,-5.46z" id="CompoundPath 1" fill="#ebebeb"/><path d="M1150.81,551.8h-193.1c-3.15126,-0.0055 -5.7045,-2.55874 -5.71,-5.71v-271.43c0.03285,-3.13172 2.57811,-5.6547 5.71,-5.66h193.1c3.12632,0.01083 5.66264,2.53378 5.69,5.66v271.43c0.00002,3.14575 -2.54427,5.69898 -5.69,5.71zM957.71,269.2c-3.01319,0.0055 -5.4545,2.44681 -5.46,5.46v271.43c0.0055,3.01319 2.44681,5.4545 5.46,5.46h193.1c3.01319,-0.0055 5.4545,-2.44681 5.46,-5.46v-271.43c-0.0055,-3.01319 -2.44681,-5.4545 -5.46,-5.46z" id="CompoundPath 1" fill="#ebebeb"/><g id="Group 1" fill="#e6e6e6"><rect x="783.73" y="295.31" width="326.64" height="141.69" id="Shape 1"/></g><g id="Group 1" fill="#f5f5f5"><rect x="779.23" y="295.31" width="329.18" height="141.69" id="Shape 1"/></g><g id="Group 1" fill="#fafafa"><rect x="881.15" y="209.64" width="125.35" height="313.03" id="Shape 1"/></g><path d="M920.41,428.82l-35.7,-125.34h-24.91l35.7,125.34z" id="Path 1" fill="#ffffff"/><path d="M888.43,428.82l-35.69,-125.34h-17.16l35.7,125.34z" id="Path 1" fill="#ffffff"/><path d="M1070.28,428.82l-35.69,-125.34h-24.92l35.7,125.34z" id="Path 1" fill="#ffffff"/><path d="M1038.31,428.82l-35.7,-125.34h-17.15l35.69,125.34z" id="Path 1" fill="#ffffff"/><g id="Group 1" fill="#e6e6e6"><rect x="789.01" y="361.33" width="125.35" height="9.64" id="Shape 1"/></g><g id="Group 1" fill="#e6e6e6"><rect x="979.75" y="361.33" width="125.35" height="9.64" id="Shape 1"/></g><g id="Group 1" fill="#f5f5f5"><rect x="780.37" y="359.61" width="136.61" height="12.18" id="Shape 1"/></g><g id="Group 1" fill="#f5f5f5"><rect x="971.11" y="359.61" width="136.61" height="12.18" id="Shape 1"/></g><g id="Group 1" fill="#e6e6e6"><rect x="725.07" y="365.72" width="125.35" height="0.86" id="Shape 1"/></g><path d="M775.84,284.8h343.32c0.55228,0 1,0.44772 1,1v0c0,0.55228 -0.44772,1 -1,1h-343.32c-0.55228,0 -1,-0.44772 -1,-1v0c0,-0.55228 0.44772,-1 1,-1z" id="Path 1" fill="#e6e6e6"/><path d="M1110.37,291.67v0c0.77483,0.00002 1.4045,-0.62519 1.41,-1.4v-3c0,-0.77872 -0.63128,-1.41 -1.41,-1.41v0c-0.77481,0.0055 -1.40002,0.63517 -1.4,1.41v3c0,0.7732 0.6268,1.4 1.4,1.4z" id="Path 1" fill="#e6e6e6"/><path d="M791.55,291.67v0c0.77483,0.00002 1.4045,-0.62519 1.41,-1.4v-3c0,-0.77872 -0.63128,-1.41 -1.41,-1.41v0c-0.77481,0.0055 -1.40002,0.63517 -1.4,1.41v3c0,0.7732 0.6268,1.4 1.4,1.4z" id="Path 1" fill="#e6e6e6"/><g id="Group 1" fill="#e0e0e0"><rect x="776.18" y="285.84" width="329.04" height="35.44" id="Shape 1" opacity="0.6"/></g><path d="M892.26,545.7c3.55,-1.2 6.12,-4.62 3.87,-8.13c-3.73,-5.8 5.6,-7 3,-16.73c-3.69,-13.7 -15.16,-1.83 -18,-15c-2.07,-9.57 -18.14,-15.84 -18.77,-3.24c-0.69,13.79 -7.6,4.78 -9.14,20.12c-1.06,10.6 14,12.14 9.53,15.46c-3.29,2.42 -5.24,6.64 -0.65,9.53c6.26,3.93 0.35,7 4.61,9.74c4.26,2.74 4.94,-1.63 11.54,0.5c5.9,1.9 10.9,-3.93 9.73,-7.58c-1.13,-3.37 0.72,-3.46 4.28,-4.67z" id="Path 1" fill="#e6e6e6"/><path d="M858.15,552c0,0 0.48,44.4 19.09,44.4c18.61,0 19.09,-44.4 19.09,-44.4z" id="Path 1" fill="#f0f0f0"/><path d="M840.44,545.7c3.54,-1.2 6.12,-4.62 3.86,-8.13c-3.73,-5.8 5.61,-7 3,-16.73c-3.7,-13.7 -15.17,-1.83 -18,-15c-2.07,-9.57 -18.14,-15.84 -18.77,-3.24c-0.69,13.79 -7.6,4.78 -9.14,20.12c-1.06,10.6 14,12.14 9.53,15.46c-3.29,2.42 -5.24,6.64 -0.64,9.53c6.25,3.93 0.35,7 4.6,9.74c4.25,2.74 4.94,-1.63 11.54,0.5c5.91,1.9 10.91,-3.93 9.73,-7.58c-1.13,-3.37 0.72,-3.46 4.29,-4.67z" id="Path 1" fill="#e6e6e6"/><path d="M806.32,552c0,0 0.49,44.4 19.09,44.4c18.6,0 19.09,-44.4 19.09,-44.4z" id="Path 1" fill="#f0f0f0"/><path d="M1003.15,502.88c2.68,-29.67 4.55,-77.83 3.1,-93.94c-0.04605,-0.55018 -0.31748,-1.05686 -0.75,-1.4v0c-0.58804,-0.463 -1.3963,-0.52844 -2.05117,-0.16608c-0.65487,0.36236 -1.02875,1.08193 -0.94883,1.82608c0.26,8 0.55,27.93 -1,62.35c-0.79,17.13 -1.93,28.86 -1.15,31.33z" id="Path 1" fill="#f0f0f0"/><path d="M1011.41,441.44c6.42,-8 19.52,-13.76 32.87,-13.73c5.24,0 -15.95,9.35 -24.76,19.66c-6.84,8 -14.56,21.48 -17.18,28.95c1.69,-15.73 2.66,-26.84 9.07,-34.88z" id="Path 1" fill="#f0f0f0"/><path d="M998,441.36c-6.34,-8.84 -21,-15.64 -36.85,-16.41c-6.23,-0.3 17.46,10.79 26.29,22.16c6.87,8.83 13.91,23.47 15.84,31.49c0.47,-16.6 1.07,-28.4 -5.28,-37.24z" id="Path 1" fill="#f0f0f0"/><path d="M1011.41,454.35c6.42,-8 19.52,-13.76 32.87,-13.73c5.24,0 -15.95,9.35 -24.76,19.66c-6.84,8 -14.56,21.48 -17.18,29c1.69,-15.78 2.66,-26.89 9.07,-34.93z" id="Path 1" fill="#f0f0f0"/><path d="M998,455c-6.34,-8.84 -21,-15.64 -36.85,-16.41c-6.23,-0.3 17.46,10.79 26.29,22.16c6.87,8.84 13.91,23.47 15.84,31.49c0.47,-16.66 1.07,-28.41 -5.28,-37.24z" id="Path 1" fill="#f0f0f0"/><path d="M1010.26,411.07c4.2,-6 13.19,-10.64 22.58,-11.27c3.69,-0.25 -10.85,7.36 -16.65,15c-4.51,6 -9.42,15.82 -11,21.21c0.61,-11.11 0.86,-19.01 5.07,-24.94z" id="Path 1" fill="#f0f0f0"/><path d="M1001.9,413.59c-4.47,-6.23 -14.8,-11 -26,-11.56c-4.39,-0.21 12.3,7.61 18.53,15.62c4.84,6.22 9.8,16.54 11.16,22.19c0.36,-11.73 0.79,-20.02 -3.69,-26.25z" id="Path 1" fill="#f0f0f0"/><path d="M1011.7,418.82c5.43,-6.81 16.52,-11.65 27.83,-11.63c4.44,0 -13.5,7.92 -21,16.65c-5.8,6.78 -12.33,18.19 -14.56,24.52c1.53,-13.36 2.3,-22.74 7.73,-29.54z" id="Path 1" fill="#f0f0f0"/><path d="M1000.67,422.44c-5.38,-7.44 -17.79,-13.24 -31.17,-13.89c-5.27,-0.26 14.78,9.14 22.26,18.76c5.74,7.48 11.74,19.87 13.38,26.69c0.36,-14.12 0.9,-24.07 -4.47,-31.56z" id="Path 1" fill="#f0f0f0"/><path d="M1012.06,428.26c5.86,-7.34 17.83,-12.57 30,-12.54c4.79,0 -14.56,8.54 -22.61,18c-6.25,7.32 -13.3,19.62 -15.7,26.45c1.57,-14.41 2.45,-24.57 8.31,-31.91z" id="Path 1" fill="#f0f0f0"/><path d="M999.82,432.28c-6,-8.31 -19.74,-14.7 -34.65,-15.42c-5.85,-0.29 16.41,10.14 24.72,20.83c6.46,8.31 13.08,22.07 14.9,29.61c0.43,-15.66 1,-26.7 -4.97,-35.02z" id="Path 1" fill="#f0f0f0"/><path d="M985.11,497.87l1,8.33c0.11105,1.86878 1.65793,3.32801 3.53,3.33h24.86c1.87207,-0.00199 3.41895,-1.46122 3.53,-3.33l1,-8.33c0.05507,-0.97036 -0.29239,-1.92049 -0.96045,-2.62641c-0.66807,-0.70592 -1.59763,-1.10515 -2.56955,-1.10359h-26.86c-0.97192,-0.00156 -1.90148,0.39768 -2.56955,1.10359c-0.66807,0.70592 -1.01552,1.65605 -0.96045,2.62641z" id="Path 1" fill="#e6e6e6"/><path d="M983.63,499.63h36.87c0.53988,-0.00105 0.99441,-0.40412 1.06,-0.94l0.88,-7.94c0.03107,-0.30057 -0.0664,-0.60026 -0.26833,-0.82506c-0.20193,-0.22479 -0.4895,-0.35372 -0.79167,-0.35494h-38.63c-0.30217,0.00122 -0.58973,0.13015 -0.79167,0.35494c-0.20193,0.22479 -0.2994,0.52448 -0.26833,0.82506l0.88,7.94c0.06559,0.53588 0.52012,0.93895 1.06,0.94z" id="Path 1" fill="#f5f5f5"/><g id="Group 1" fill="#e6e6e6"><rect x="928.43" y="509.53" width="16.02" height="86.87" id="Shape 1"/></g><path d="M933.24,596.4h-4.8v-16.63h9.83z" id="Path 1" fill="#f0f0f0"/><g id="Group 1" fill="#e6e6e6"><rect x="1128.01" y="509.53" width="16.02" height="86.87" id="Shape 1"/></g><g id="Group 1" fill="#f0f0f0"><rect x="928.43" y="509.53" width="203.77" height="76.67" id="Shape 1"/></g><path d="M1127.4,596.4h4.8v-16.63h-9.83z" id="Path 1" fill="#f0f0f0"/><g id="Group 1" fill="#e6e6e6"><rect x="932.16" y="514.92" width="196.32" height="30.68" id="Shape 1"/></g><path d="M960.93,524.46h135.57c4.68,0 9.16,-3.79 12.39,-10.47h-160.34c3.22,6.68 7.7,10.47 12.38,10.47z" id="Path 1" fill="#f0f0f0"/><g id="Group 1" fill="#e6e6e6"><rect x="932.16" y="550.56" width="196.32" height="30.68" id="Shape 1"/></g><path d="M960.93,560.09h135.57c4.68,0 9.16,-3.78 12.39,-10.46h-160.34c3.22,6.68 7.7,10.46 12.38,10.46z" id="Path 1" fill="#f0f0f0"/><path d="M1129.74,489.17c0,0 -0.88,20.36 -34.46,20.36c-33.58,0 -34.45,-20.36 -34.45,-20.36z" id="Path 1" fill="#f5f5f5"/><path d="M1129.74,478.6c0,0 -0.88,20.4 -34.46,20.4c-33.58,0 -34.45,-20.36 -34.45,-20.36z" id="Path 1" fill="#f5f5f5"/></g><g id="Group 1" fill="#f5f5f5"><ellipse cx="947.5" cy="630.24" rx="193.89" ry="11.32" id="Shape 1"/></g><g id="Group 1"><path d="M1065.4,349.37c-6,3.28 -8,13 -5.19,17.23c-10.4,3.12 -5,21 12,22c17,1 29.94,-5.21 21.59,-18.47c8.26,-11.13 4.46,-23.56 -2.78,-22.19c-7.77,-15.57 -33.79,-15.11 -25.62,1.43z" id="Path 1" fill="#263238"/><path d="M1083.5,389.8c-2.62239,-0.00827 -5.19353,-0.72709 -7.44,-2.08c-0.09821,-0.03565 -0.16554,-0.12662 -0.17094,-0.23095c-0.0054,-0.10434 0.05217,-0.20177 0.14617,-0.24737c0.094,-0.0456 0.20617,-0.0305 0.28477,0.03833c5.9877,3.58398 13.69635,2.2489 18.13,-3.14c2.73,-3.38 4,-8.8 -0.77,-13.86c-0.09665,-0.10217 -0.09217,-0.26335 0.01,-0.36c0.10217,-0.09665 0.26335,-0.09217 0.36,0.01c4.94,5.3 3.65,11 0.79,14.53c-2.80417,3.36958 -6.95625,5.3248 -11.34,5.34z" id="Path 1" fill="#263238"/><path d="M1058.33,369.92c-0.10471,-0.00289 -0.19652,-0.07074 -0.23,-0.17c-2.66,-7.62 0.9,-17.85 7.19,-20.65c0.12703,-0.04512 0.26788,0.01036 0.33,0.13c0.02674,0.06097 0.02806,0.1301 0.00365,0.19205c-0.0244,0.06195 -0.07251,0.1116 -0.13365,0.13795c-6.08,2.7 -9.51,12.62 -6.92,20c0.02206,0.06363 0.01752,0.13347 -0.0126,0.1937c-0.03012,0.06023 -0.08326,0.10577 -0.1474,0.1263z" id="Path 1" fill="#263238"/><path d="M1056.7,358.91h-0.09c-0.12595,-0.05107 -0.19132,-0.19052 -0.15,-0.32c1.8,-4.77 5.2,-8.4 8.86,-9.48c0.13255,-0.03866 0.27134,0.03745 0.31,0.17c0.03866,0.13255 -0.03745,0.27134 -0.17,0.31c-3.51,1 -6.78,4.55 -8.53,9.18c-0.04284,0.08749 -0.1326,0.14213 -0.23,0.14z" id="Path 1" fill="#263238"/><path d="M1070.7,624.91l-5.78,0.01l-0.97,-21.71l9.73,0.24z" id="Path 1" fill="#ffb573"/><path d="M1060.65,437.57c0,0 -0.51,60.25 -1.78,86.48c-0.05,0.7792 -0.05,1.5608 0,2.34c1.9,26.29 5.05,76.82 5.05,76.82l9.79,0.25c0,0 8.53,-40.35 3.25,-76.9c8.49,-41.34 13.06,-78.23 5.37,-89z" id="Path 1" fill="#407bff"/><g id="Group 1" fill="#000000"><path d="M1077.05,461.5c-3,10.06 -0.08,42.4 1.47,57.32c2.11,-10.78 3.91,-21.15 5.24,-30.71z" id="Path 1" opacity="0.2"/></g><path d="M1064.27,622.11h7.51c0.32791,-0.0121 0.60847,0.23338 0.64,0.56l0.76,6.15c0.00807,0.38443 -0.13902,0.75591 -0.40808,1.03061c-0.26906,0.2747 -0.6374,0.42947 -1.02192,0.42939c-3.31,0 -4.89,-0.24 -9.06,-0.23c-2.57,0 -4.12,0.26 -7.67,0.26c-3.55,0 -3.55,-3.4 -2.06,-3.71c6.69,-1.39 7.55,-2.16 9.88,-4c0.40897,-0.31771 0.91212,-0.49012 1.43,-0.49z" id="Path 1" fill="#263238"/><path d="M1066.74,393.23c-0.37,2.07 -0.79,4 -1.24,6c-0.45,2 -0.91,4 -1.44,6c-1.05,4 -2.14,7.92 -3.58,11.88c-0.72256,2.04732 -1.56399,4.05073 -2.52,6c-0.52987,1.08178 -1.14166,2.12147 -1.83,3.11c-0.2,0.27 -0.38,0.53 -0.64,0.83c-0.24884,0.31838 -0.5267,0.61298 -0.83,0.88c-0.76687,0.72456 -1.69096,1.2619 -2.7,1.57c-1.05794,0.31978 -2.17995,0.36453 -3.26,0.13c-0.85025,-0.19689 -1.66149,-0.53491 -2.4,-1c-1.12071,-0.71752 -2.11427,-1.61645 -2.94,-2.66c-1.41824,-1.76477 -2.54884,-3.74247 -3.35,-5.86c-0.36254,-0.92797 -0.02316,-1.98297 0.81244,-2.5255c0.8356,-0.54253 1.9374,-0.42327 2.63756,0.2855l0.12,0.13c1.24115,1.31092 2.57818,2.52762 4,3.64c0.55564,0.42438 1.17273,0.76159 1.83,1c0.24,0.06 0.41,0.06 0.43,0c0.02,-0.06 -0.14,-0.1 -0.28,-0.09c-0.14,0.01 -0.23,0.06 -0.19,0c0.04707,-0.08718 0.10055,-0.17074 0.16,-0.25c0.09929,-0.12113 0.18638,-0.25176 0.26,-0.39c0.41901,-0.68866 0.78667,-1.40727 1.1,-2.15c0.72807,-1.71313 1.36889,-3.46203 1.92,-5.24c1.14,-3.66 2.18,-7.47 3.08,-11.3c0.9,-3.83 1.79,-7.74 2.59,-11.56v0c0.51211,-2.19484 2.66868,-3.59136 4.88095,-3.16075c2.21227,0.43061 3.68757,2.53407 3.33905,4.76075z" id="Path 1" fill="#ffb573"/><path d="M1057.65,429.39c0,2.46 38.34,2.94 38.34,-0.31l-19.59,-5l-18.75,5.31" id="Path 1" fill="#263238"/><path d="M1064.69,386.78c10.10884,-1.69073 20.43636,-1.58918 30.51,0.3c1.1943,0.18907 2.25731,0.86346 2.93719,1.86339c0.67988,0.99994 0.91614,2.23645 0.65281,3.41661c-5.42,24.27 -5.11,32.43 -4.59,45.21h-33.54c-1.68,-21.32 -2.57,-33.49 -2.79,-40.4c-0.18,-5.27 1.63,-9.62 6.82,-10.39z" id="Path 1" fill="#ffb573"/><g id="Group 1" fill="#000000"><path d="M1095.1,393.83c-0.2111,3.38734 0.23719,6.78346 1.32,10c0.43,-2.31 0.93,-4.79 1.5,-7.5z" id="Path 1" opacity="0.2"/></g><path d="M1084.19,369.06c-1,4.85 -1.91,13.76 1.49,17c0,0 -1.33,4.93 -10.35,4.93c-9.93,0 -4.75,-4.93 -4.75,-4.93c5.42,-1.3 5.28,-5.32 4.34,-9.09z" id="Path 1" fill="#ffb573"/><g id="Group 1" fill="#000000"><path d="M1080.41,372.29l-5.49,4.71c0.23315,0.87822 0.39039,1.77485 0.47,2.68c2.07,-0.3 4.91,-2.57 5.13,-4.74c0.12322,-0.88275 0.08596,-1.7805 -0.11,-2.65z" id="Path 1" opacity="0.2"/></g><path d="M1089.43,360.64c-1.86,7.91 -2.47,11.3 -7.21,14.71c-7.12,5.14 -16.44,1.14 -17,-7.17c-0.5,-7.47 2.61,-19.16 11,-21c3.74676,-0.84477 7.66388,0.30926 10.35417,3.05046c2.69029,2.74121 3.77069,6.67927 2.85583,10.40954z" id="Path 1" fill="#ffb573"/><path d="M1086.41,348.74c-8.38,0.93 -5.83,16.55 0.47,18.06c7.38,-3.61 11.93,-17.32 -0.47,-18.06z" id="Path 1" fill="#263238"/><path d="M1127.43,610.61l-5.79,1.76l-8.45,-17.7l8.91,-2.43z" id="Path 1" fill="#ffb573"/><path d="M1119.97,610.6l7.44,-2.88c0.26885,-0.10366 0.57325,0.00203 0.72,0.25l3.33,5.62c0.16171,0.28348 0.19173,0.62339 0.08221,0.93082c-0.10952,0.30743 -0.34769,0.5518 -0.65221,0.66918c-2.61,1 -3.87,1.51 -7.14,2.78c-2,0.78 -5.14,3.38 -7.92,4.45c-2.78,1.07 -4,-1.47 -3,-2.35c2.70932,-2.36461 4.84347,-5.31617 6.24,-8.63c0.17117,-0.39224 0.4969,-0.69625 0.9,-0.84z" id="Path 1" fill="#263238"/><path d="M1069.86,437.57c0,0 12.33,63.07 17,88c4.83,26 26.35,69.06 26.35,69.06l8.93,-2.44c0,0 -12.23,-46.06 -17.93,-68.89c-1.12,-41.34 0.2,-75 -10,-85.77z" id="Path 1" fill="#407bff"/><path d="M1076.31,360.59c-0.11,0.65 -0.54,1.12 -1,1c-0.46,-0.12 -0.68,-0.66 -0.57,-1.31c0.11,-0.65 0.55,-1.12 1,-1.05c0.45,0.07 0.69,0.71 0.57,1.36z" id="Path 1" fill="#263238"/><path d="M1068.96,359.34c-0.11,0.65 -0.55,1.12 -1,1c-0.45,-0.12 -0.68,-0.65 -0.57,-1.31c0.11,-0.66 0.55,-1.12 1,-1c0.45,0.12 0.68,0.66 0.57,1.31z" id="Path 1" fill="#263238"/><path d="M1068.57,358.1l-1.49,-0.72c0,0 0.6,1.36 1.49,0.72z" id="Path 1" fill="#263238"/><path d="M1071.02,360.9c-0.82567,1.38302 -1.83484,2.64785 -3,3.76c0.58984,0.59018 1.40801,0.89334 2.24,0.83z" id="Path 1" fill="#ed893e"/><path d="M1073.36,368.64c-0.33537,0.00022 -0.67006,-0.0299 -1,-0.09c-0.05068,-0.00736 -0.09625,-0.03486 -0.12637,-0.07628c-0.03012,-0.04142 -0.04225,-0.09324 -0.03363,-0.14372c0.02019,-0.10267 0.1161,-0.17243 0.22,-0.16c1.63697,0.31187 3.32488,-0.17039 4.55,-1.3c0.03599,-0.03922 0.08677,-0.06155 0.14,-0.06155c0.05323,0 0.10401,0.02233 0.14,0.06155c0.06992,0.07642 0.06992,0.19358 0,0.27c-1.04721,0.99486 -2.44597,1.53423 -3.89,1.5z" id="Path 1" fill="#263238"/><path d="M1090.57,367.46c-0.79689,1.35394 -2.09304,2.34131 -3.61,2.75c-2,0.51 -3,-1.3 -2.38,-3.18c0.53,-1.69 2.23,-4 4.24,-3.69c0.88666,0.16206 1.63248,0.75897 1.98486,1.58858c0.35238,0.82961 0.26414,1.7808 -0.23486,2.53142z" id="Path 1" fill="#ffb573"/><path d="M1079.5,359.59c-0.16612,-0.00163 -0.31192,-0.11098 -0.36,-0.27c-0.53,-1.71 -2.72,-2.45 -2.74,-2.45c-0.0996,-0.02969 -0.1827,-0.09888 -0.22993,-0.19146c-0.04723,-0.09258 -0.05449,-0.20047 -0.02007,-0.29854c0.02969,-0.0996 0.09888,-0.1827 0.19146,-0.22993c0.09258,-0.04723 0.20047,-0.05449 0.29854,-0.02007c0.1,0 2.59,0.87 3.24,3c0.03113,0.09946 0.02115,0.20723 -0.02769,0.29929c-0.04885,0.09206 -0.1325,0.16073 -0.23231,0.19071z" id="Path 1" fill="#263238"/><path d="M1067.32,355.56c-0.13554,-0.00168 -0.26049,-0.07362 -0.33,-0.19c-0.10463,-0.18781 -0.03754,-0.42488 0.15,-0.53c1.06856,-0.64632 2.38379,-0.73574 3.53,-0.24c0.18913,0.09786 0.2648,0.32932 0.17,0.52c-0.09786,0.18913 -0.32932,0.2648 -0.52,0.17v0c-0.91544,-0.37466 -1.95431,-0.29303 -2.8,0.22c-0.06014,0.03637 -0.12983,0.05379 -0.2,0.05z" id="Path 1" fill="#263238"/><path d="M1097.94,388.47c2.85,3.73 5.44,7.5 7.9,11.48c1.22,2 2.42,4 3.52,6.13c1.19496,2.20712 2.18253,4.52038 2.95,6.91c0.11,0.32 0.19,0.69 0.28,1l0.07,0.29l0.09,0.42c0.04051,0.26175 0.06721,0.52545 0.08,0.79c0.04598,0.86789 -0.01786,1.73811 -0.19,2.59c-0.28454,1.35086 -0.7102,2.66809 -1.27,3.93c-0.98639,2.22965 -2.15013,4.37654 -3.48,6.42c-2.53169,3.92728 -5.37768,7.64279 -8.51,11.11c-0.71093,0.79569 -1.90865,0.92436 -2.77237,0.29784c-0.86372,-0.62652 -1.11327,-1.805 -0.57763,-2.72784v-0.05c2.21,-3.85 4.4,-7.81 6.29,-11.73c0.92687,-1.88994 1.73185,-3.83725 2.41,-5.83c0.29201,-0.84626 0.49314,-1.72118 0.6,-2.61c0.0368,-0.26205 0.0368,-0.52795 0,-0.79v-0.06v0v-0.12c-0.07,-0.2 -0.12,-0.38 -0.21,-0.59c-0.77867,-1.87487 -1.69448,-3.68979 -2.74,-5.43c-1.1,-1.85 -2.27,-3.7 -3.47,-5.55c-2.44,-3.66 -5,-7.34 -7.6,-10.9v0c-1.29518,-1.857 -0.88092,-4.40702 0.9355,-5.75852c1.81642,-1.35151 4.37794,-1.01561 5.7845,0.75852z" id="Path 1" fill="#ffb573"/><path d="M1075.93,359.35l-1.49,-0.72c0,0 0.59,1.37 1.49,0.72z" id="Path 1" fill="#263238"/><path d="M1058.81,394.78c0.61781,-2.52297 1.41312,-4.99914 2.38,-7.41c1.53407,-0.45824 3.10244,-0.79264 4.69,-1c3.23428,2.86637 5.89475,6.32091 7.84,10.18c4.29,-4.34 12.5,-8.73 17.5,-10.33c1.69147,-0.10666 3.38786,0.10708 5,0.63c-3.41,10.76 -6.89,21.58 -0.72,24.36c-0.11,5.11 0.18,11.45 0.44,17.86c-5.83,-0.64 -28.95,-1.75 -38.34,0.31c-0.48,-6.5 -0.65,-12 -0.62,-16.75c-4.37,-5.57 0.01,-13.15 1.83,-17.85z" id="Path 1" fill="#263238"/><g clip-path="url(#clip-2)" id="Group 1"><g id="Group 1" fill="#ffffff"><g id="Group 1" opacity="0.2"><path d="M1068,414.79c-0.10641,0.01282 -0.1979,0.08144 -0.24,0.18c-0.70901,1.98898 -0.68774,4.16525 0.06,6.14c-0.69,-0.58 -1.37,-1.15 -2,-1.73c1.14847,-2.45574 0.81583,-5.34898 -0.86,-7.48c-0.06392,-0.08308 -0.1655,-0.12822 -0.27,-0.12c-0.10811,0.00847 -0.2016,0.07859 -0.24,0.18c-0.73201,2.04467 -0.68573,4.28726 0.13,6.3c-0.9,-0.82 -1.76,-1.64 -2.55,-2.43v0c1.20505,-2.46969 0.89031,-5.41118 -0.81,-7.57c-0.06392,-0.08308 -0.1655,-0.12822 -0.27,-0.12c-0.10811,0.00847 -0.2016,0.07859 -0.24,0.18c-0.72708,2.04889 -0.68086,4.29279 0.13,6.31c-1.37,-1.43 -2.51,-2.73 -3.36,-3.81c-0.62079,-2.45782 -2.4596,-4.42501 -4.87,-5.21c-0.09791,-0.01706 -0.19806,0.01385 -0.26932,0.08313c-0.07126,0.06928 -0.10498,0.16852 -0.09068,0.26687c0.9,4.43 4.16,5.2 4.82,5.31c0.47,0.59 1,1.24 1.64,1.94c-1.56729,-0.70229 -3.31105,-0.91155 -5,-0.6c-0.10441,0.02405 -0.18595,0.10559 -0.21,0.21c-0.03045,0.10059 -0.00786,0.20975 0.06,0.29c1.75373,1.99978 4.48932,2.83285 7.06,2.15c0.56,0.58 1.16,1.17 1.79,1.78c-2.11776,-0.60554 -4.37862,-0.47151 -6.41,0.38c-0.09807,0.05204 -0.15938,0.15398 -0.15938,0.265c0,0.11102 0.06131,0.21296 0.15938,0.265c2.32335,1.44673 5.24055,1.54956 7.66,0.27c0.84,0.79 1.73,1.58 2.65,2.37c-2.04901,-0.92466 -4.36733,-1.05998 -6.51,-0.38c-0.10117,0.04097 -0.17333,0.13213 -0.19,0.24c-0.01048,0.10559 0.03045,0.20978 0.11,0.28c2.14641,1.73873 5.08725,2.12518 7.61,1l0.08,-0.05c0.03148,-0.03315 0.05237,-0.07493 0.06,-0.12l1.13,0.92v0c0.03502,0.0472 0.084,0.08219 0.14,0.1c0.6,0.48 1.21,0.95 1.83,1.41c0.11227,0.09603 0.27773,0.09603 0.39,0v0c0.0467,-0.06488 0.06557,-0.14572 0.05243,-0.22457c-0.01314,-0.07885 -0.05721,-0.1492 -0.12243,-0.19543c-0.57,-0.43 -1.14,-0.86 -1.69,-1.31c1.05834,-2.42696 0.69721,-5.23919 -0.94,-7.32c-0.05362,-0.09288 -0.15275,-0.15007 -0.26,-0.15z" id="Path 1"/><path d="M1058.14,399.3c0.10641,-0.01282 0.1979,-0.08144 0.24,-0.18c0.70901,-1.98898 0.68774,-4.16525 -0.06,-6.14c0.69,0.58 1.37,1.15 2,1.73c-1.14847,2.45574 -0.81583,5.34898 0.86,7.48c0.06392,0.08308 0.1655,0.12822 0.27,0.12c0.10811,-0.00847 0.2016,-0.07859 0.24,-0.18c0.73201,-2.04467 0.68573,-4.28726 -0.13,-6.3c0.9,0.82 1.76,1.64 2.55,2.43v0c-1.20505,2.46969 -0.89031,5.41118 0.81,7.57c0.06392,0.08308 0.1655,0.12822 0.27,0.12c0.10811,-0.00847 0.2016,-0.07859 0.24,-0.18c0.72708,-2.04889 0.68086,-4.29279 -0.13,-6.31c1.37,1.43 2.51,2.73 3.36,3.81c0.62079,2.45782 2.4596,4.42501 4.87,5.21c0.09791,0.01706 0.19806,-0.01385 0.26932,-0.08313c0.07126,-0.06928 0.10498,-0.16852 0.09068,-0.26687c-0.9,-4.43 -4.16,-5.2 -4.82,-5.31c-0.47,-0.59 -1,-1.24 -1.64,-1.94c1.56662,0.70515 3.31228,0.91114 5,0.59c0.10413,-0.01781 0.18713,-0.09686 0.21,-0.2c0.03045,-0.10059 0.00786,-0.20975 -0.06,-0.29c-1.75373,-1.99978 -4.48932,-2.83285 -7.06,-2.15c-0.56,-0.58 -1.16,-1.17 -1.79,-1.78c2.11776,0.60554 4.37862,0.47151 6.41,-0.38c0.09807,-0.05204 0.15938,-0.15398 0.15938,-0.265c0,-0.11102 -0.06131,-0.21296 -0.15938,-0.265c-2.32335,-1.44673 -5.24055,-1.54956 -7.66,-0.27c-0.84,-0.79 -1.73,-1.58 -2.65,-2.37c2.04901,0.92466 4.36733,1.05998 6.51,0.38c0.09885,-0.04401 0.16984,-0.13369 0.19,-0.24c0.01048,-0.10559 -0.03045,-0.20978 -0.11,-0.28c-2.14641,-1.73873 -5.08725,-2.12518 -7.61,-1l-0.08,0.05c-0.03148,0.03315 -0.05237,0.07493 -0.06,0.12l-1.13,-0.92v0c-0.03502,-0.0472 -0.084,-0.08219 -0.14,-0.1c-0.6,-0.48 -1.21,-0.95 -1.83,-1.41c-0.11227,-0.09603 -0.27773,-0.09603 -0.39,0v0c-0.09394,0.1339 -0.06767,0.31775 0.06,0.42c0.58,0.43 1.15,0.86 1.7,1.31c-1.05834,2.42696 -0.69721,5.23919 0.94,7.32c0.05362,0.09288 0.15275,0.15007 0.26,0.15z" id="Path 1"/><path d="M1088.97,422.09c-0.10284,0.01437 -0.19232,0.07775 -0.24,0.17c-0.70038,1.99042 -0.67914,4.16365 0.06,6.14c-0.69,-0.57 -1.37,-1.15 -2,-1.73c1.1491,-2.45227 0.8163,-5.34301 -0.86,-7.47c-0.06291,-0.08366 -0.16487,-0.12848 -0.26905,-0.11827c-0.10417,0.01021 -0.19549,0.07398 -0.24095,0.16827c-0.72708,2.04889 -0.68086,4.29279 0.13,6.31c-0.9,-0.83 -1.76,-1.64 -2.55,-2.43v0c1.21075,-2.4653 0.89555,-5.40716 -0.81,-7.56c-0.05985,-0.08809 -0.1645,-0.13461 -0.27,-0.12c-0.1035,0.0127 -0.19368,0.07658 -0.24,0.17c-0.72708,2.04889 -0.68086,4.29279 0.13,6.31c-1.37,-1.42 -2.51,-2.73 -3.36,-3.81c-0.62761,-2.45409 -2.46378,-4.41845 -4.87,-5.21c-0.0977,-0.01985 -0.19888,0.01013 -0.27,0.08c-0.07365,0.0732 -0.10721,0.17759 -0.09,0.28c0.9,4.42 4.17,5.19 4.82,5.3c0.47,0.59 1,1.25 1.64,1.95c-1.56712,-0.70291 -3.31107,-0.91218 -5,-0.6c-0.10217,0.02801 -0.18199,0.10783 -0.21,0.21c-0.03069,0.09739 -0.0079,0.20374 0.06,0.28c1.74428,2.01437 4.48903,2.85024 7.06,2.15c0.56,0.58 1.16,1.18 1.79,1.79c-2.11713,-0.61122 -4.37992,-0.47708 -6.41,0.38c-0.09263,0.0553 -0.15237,0.15239 -0.16,0.26c-0.00223,0.10781 0.05555,0.20796 0.15,0.26c2.32217,1.44788 5.23832,1.55447 7.66,0.28c0.84,0.78 1.73,1.57 2.65,2.37c-2.04901,-0.92466 -4.36733,-1.05998 -6.51,-0.38c-0.10117,0.04097 -0.17333,0.13213 -0.19,0.24c-0.01228,0.10516 0.03371,0.20865 0.12,0.27c2.14641,1.73873 5.08725,2.12518 7.61,1l0.07,-0.06c0.02905,-0.0327 0.05268,-0.06983 0.07,-0.11l1.13,0.92v0c0.03141,0.04649 0.07701,0.08157 0.13,0.1c0.6,0.48 1.21,0.95 1.83,1.42c0.11227,0.09603 0.27773,0.09603 0.39,0v0c0.09941,-0.13255 0.07255,-0.32059 -0.06,-0.42c-0.58,-0.43 -1.14,-0.87 -1.7,-1.31c1.06341,-2.42483 0.70598,-5.23812 -0.93,-7.32c-0.05258,-0.09527 -0.15126,-0.156 -0.26,-0.16z" id="Path 1"/><path d="M1108.2,429c-0.10811,0.00847 -0.2016,0.07859 -0.24,0.18c-0.7131,1.98765 -0.69537,4.16423 0.05,6.14c-0.69,-0.58 -1.36,-1.16 -2,-1.73c1.15367,-2.4535 0.82476,-5.34791 -0.85,-7.48c-0.06589,-0.08626 -0.17209,-0.13178 -0.28,-0.12c-0.10564,0.01472 -0.19629,0.08271 -0.24,0.18c-0.72734,2.04543 -0.6811,4.28631 0.13,6.3c-0.9,-0.82 -1.75,-1.64 -2.54,-2.43v0c1.20505,-2.46969 0.89031,-5.41118 -0.81,-7.57c-0.06392,-0.08308 -0.1655,-0.12822 -0.27,-0.12c-0.10811,0.00847 -0.2016,0.07859 -0.24,0.18c-0.73174,2.04814 -0.68548,4.29374 0.13,6.31c-1.37,-1.43 -2.52,-2.73 -3.36,-3.81c-0.62079,-2.45782 -2.4596,-4.42501 -4.87,-5.21c-0.09878,-0.02211 -0.20206,0.0071 -0.27463,0.07766c-0.07258,0.07056 -0.10468,0.17297 -0.08537,0.27234c0.9,4.43 4.16,5.2 4.82,5.31c0.46,0.59 1,1.24 1.64,1.94c-1.5678,-0.70046 -3.31099,-0.90964 -5,-0.6c-0.10021,0.03131 -0.17869,0.10979 -0.21,0.21c-0.02777,0.10228 -0.00137,0.21165 0.07,0.29c1.75188,1.99601 4.48242,2.82873 7.05,2.15c0.57,0.58 1.16,1.17 1.79,1.78c-2.11439,-0.60561 -4.37213,-0.47156 -6.4,0.38c-0.09833,0.04931 -0.16029,0.15 -0.16,0.26c-0.00182,0.10784 0.05081,0.20935 0.14,0.27c2.32889,1.44047 5.24558,1.54314 7.67,0.27c0.84,0.78667 1.72,1.57667 2.64,2.37c-2.04901,-0.92466 -4.36733,-1.05998 -6.51,-0.38c-0.10141,0.0384 -0.17153,0.13189 -0.18,0.24c-0.01048,0.10559 0.03045,0.20978 0.11,0.28c2.14736,1.73653 5.08691,2.12281 7.61,1c0.02311,0.00458 0.04689,0.00458 0.07,0c0.03764,-0.02973 0.06265,-0.0726 0.07,-0.12l1.13,0.92v0c0.03357,0.0444 0.07847,0.07894 0.13,0.1c0.6,0.48 1.21,0.95 1.83,1.41c0.11227,0.09603 0.27773,0.09603 0.39,0v0c0.0505,-0.06262 0.07271,-0.14341 0.06134,-0.22305c-0.01138,-0.07964 -0.05532,-0.15097 -0.12134,-0.19695l-1.7,-1.31c1.06341,-2.42483 0.70598,-5.23812 -0.93,-7.32c-0.04141,-0.11081 -0.14227,-0.1884 -0.26,-0.2z" id="Path 1"/><path d="M1064.23,430.13c-0.10493,0.00889 -0.1968,0.07396 -0.24,0.17c-0.7131,1.98765 -0.69537,4.16423 0.05,6.14c-0.69,-0.57 -1.36,-1.15 -2,-1.73c1.15367,-2.4535 0.82476,-5.34791 -0.85,-7.48c-0.06676,-0.08248 -0.17108,-0.12508 -0.27649,-0.11292c-0.10542,0.01216 -0.19729,0.0774 -0.24351,0.17292c-0.72708,2.04889 -0.68086,4.29279 0.13,6.31c-0.9,-0.83 -1.75,-1.64 -2.54,-2.43v0c1.20505,-2.46969 0.89031,-5.41118 -0.81,-7.57c-0.06231,-0.08433 -0.1665,-0.12678 -0.27,-0.11c-0.10655,0.0043 -0.20059,0.07091 -0.24,0.17c-0.73174,2.04814 -0.68548,4.29374 0.13,6.31c-1.18451,-1.21162 -2.30599,-2.4833 -3.36,-3.81c-0.62761,-2.45409 -2.46378,-4.41845 -4.87,-5.21c-0.10076,-0.01981 -0.20491,0.00995 -0.28,0.08c-0.06444,0.07421 -0.09361,0.17267 -0.08,0.27c0.9,4.43 4.16,5.2 4.82,5.31c0.46,0.59 1,1.24 1.64,2c-1.56503,-0.71043 -3.31132,-0.91998 -5,-0.6c-0.09971,0.02616 -0.17901,0.10168 -0.21,0.2c-0.02777,0.10228 -0.00137,0.21165 0.07,0.29c1.73971,2.01478 4.48205,2.85109 7.05,2.15c0.57,0.58 1.16,1.18 1.79,1.79c-2.11329,-0.61543 -4.37438,-0.48118 -6.4,0.38c-0.09675,0.04588 -0.15886,0.14293 -0.16,0.25c-0.00372,0.10828 0.04936,0.21065 0.14,0.27c2.32588,1.44765 5.24476,1.55421 7.67,0.28c0.84,0.78 1.72,1.57 2.64,2.36c-2.05003,-0.9223 -4.36867,-1.05408 -6.51,-0.37c-0.0984,0.03682 -0.1679,0.12563 -0.18,0.23c-0.01411,0.10606 0.02747,0.2119 0.11,0.28c2.14736,1.73653 5.08691,2.12281 7.61,1c0.02311,0.00458 0.04689,0.00458 0.07,0c0.03558,-0.02726 0.06037,-0.06622 0.07,-0.11l1.13,0.92v0c0.03357,0.0444 0.07847,0.07894 0.13,0.1c0.61,0.48 1.21,0.95 1.83,1.42c0.11227,0.09603 0.27773,0.09603 0.39,0v0c0.0505,-0.06262 0.07271,-0.14341 0.06134,-0.22305c-0.01138,-0.07964 -0.05532,-0.15097 -0.12134,-0.19695l-1.7,-1.31c1.06291,-2.42825 0.70564,-5.24413 -0.93,-7.33c-0.00965,-0.1394 -0.1206,-0.25035 -0.26,-0.26z" id="Path 1"/><path d="M1088.33,388c-0.10564,0.01472 -0.19629,0.08271 -0.24,0.18c-0.70038,1.99042 -0.67914,4.16365 0.06,6.14c-0.69,-0.58 -1.37,-1.15 -2,-1.73c1.14847,-2.45574 0.81583,-5.34898 -0.86,-7.48c-0.06392,-0.08308 -0.1655,-0.12822 -0.27,-0.12c-0.10811,0.00847 -0.2016,0.07859 -0.24,0.18c-0.72734,2.04543 -0.6811,4.28631 0.13,6.3c-0.9,-0.82 -1.76,-1.64 -2.55,-2.43v0c1.20505,-2.46969 0.89031,-5.41118 -0.81,-7.57c-0.0627,-0.08462 -0.16518,-0.13017 -0.27,-0.12c-0.10811,0.00847 -0.2016,0.07859 -0.24,0.18c-0.72708,2.04889 -0.68086,4.29279 0.13,6.31c-1.37,-1.43 -2.51,-2.73 -3.36,-3.81c-0.62079,-2.45782 -2.4596,-4.42501 -4.87,-5.21c-0.09791,-0.01706 -0.19806,0.01385 -0.26932,0.08313c-0.07126,0.06928 -0.10498,0.16852 -0.09068,0.26687c0.9,4.43 4.17,5.2 4.82,5.31c0.47,0.59 1,1.24 1.64,1.94c-1.56712,-0.70291 -3.31107,-0.91218 -5,-0.6c-0.10021,0.03131 -0.17869,0.10979 -0.21,0.21c-0.03045,0.10059 -0.00786,0.20975 0.06,0.29c1.75373,1.99978 4.48932,2.83285 7.06,2.15c0.56,0.58 1.16,1.17 1.79,1.78c-2.11776,-0.60554 -4.37862,-0.47151 -6.41,0.38c-0.09263,0.0553 -0.15237,0.15239 -0.16,0.26c-0.00159,0.11027 0.05553,0.21309 0.15,0.27c2.32335,1.44673 5.24055,1.54956 7.66,0.27c0.84,0.79 1.73,1.58 2.65,2.37c-2.04901,-0.92466 -4.36733,-1.05998 -6.51,-0.38c-0.10117,0.04097 -0.17333,0.13213 -0.19,0.24c-0.01178,0.10791 0.03374,0.21411 0.12,0.28c2.1433,1.73696 5.08034,2.12342 7.6,1l0.08,-0.05c0.03148,-0.03315 0.05237,-0.07493 0.06,-0.12l1.13,0.92v0c0.037,0.04513 0.08531,0.07963 0.14,0.1c0.6,0.48 1.21,0.95 1.83,1.41c0.11227,0.09603 0.27773,0.09603 0.39,0v0c0.09941,-0.13255 0.07255,-0.32059 -0.06,-0.42c-0.58,-0.43 -1.14,-0.86 -1.7,-1.31c1.06341,-2.42483 0.70598,-5.23812 -0.93,-7.32c-0.0576,-0.0888 -0.15429,-0.14459 -0.26,-0.15z" id="Path 1"/><path d="M1078.83,407c0.10493,-0.00889 0.1968,-0.07396 0.24,-0.17c0.7131,-1.98765 0.69537,-4.16423 -0.05,-6.14c0.69,0.57 1.36,1.15 2,1.73c-1.15367,2.4535 -0.82476,5.34791 0.85,7.48c0.06676,0.08248 0.17108,0.12508 0.27649,0.11292c0.10542,-0.01216 0.19729,-0.0774 0.24351,-0.17292c0.72708,-2.04889 0.68086,-4.29279 -0.13,-6.31c0.9,0.82667 1.75,1.63667 2.55,2.43v0c-1.20505,2.46969 -0.89031,5.41118 0.81,7.57c0.06676,0.08248 0.17108,0.12508 0.27649,0.11292c0.10542,-0.01216 0.19729,-0.0774 0.24351,-0.17292c0.72855,-2.04936 0.67872,-4.29497 -0.14,-6.31c1.18451,1.21162 2.30599,2.4833 3.36,3.81c0.62782,2.45739 2.46888,4.42295 4.88,5.21c0.0977,0.01985 0.19888,-0.01013 0.27,-0.08c0.07005,-0.07509 0.09981,-0.17924 0.08,-0.28c-0.89,-4.42 -4.16,-5.19 -4.82,-5.3c-0.46,-0.59 -1,-1.24 -1.64,-2c1.56503,0.71043 3.31132,0.91998 5,0.6c0.09971,-0.02616 0.17901,-0.10168 0.21,-0.2c0.02777,-0.10228 0.00137,-0.21165 -0.07,-0.29c-1.73971,-2.01478 -4.48205,-2.85109 -7.05,-2.15c-0.56,-0.58 -1.16,-1.18 -1.79,-1.79c2.11329,0.61543 4.37438,0.48118 6.4,-0.38c0.09833,-0.04931 0.16029,-0.15 0.16,-0.26c0.00654,-0.10623 -0.04771,-0.20699 -0.14,-0.26c-2.32588,-1.44765 -5.24476,-1.55421 -7.67,-0.28c-0.84,-0.78 -1.72,-1.57 -2.64,-2.36c2.05116,0.91766 4.36807,1.04934 6.51,0.37c0.0984,-0.03682 0.1679,-0.12563 0.18,-0.23c0.01839,-0.10654 -0.02401,-0.21447 -0.11,-0.28c-2.14451,-1.74315 -5.08795,-2.12994 -7.61,-1c-0.02311,-0.00458 -0.04689,-0.00458 -0.07,0c-0.02905,0.0327 -0.05268,0.06983 -0.07,0.11l-1.13,-0.92v0c-0.03141,-0.04649 -0.07701,-0.08157 -0.13,-0.1c-0.6,-0.48 -1.21,-1 -1.83,-1.42c-0.11227,-0.09603 -0.27773,-0.09603 -0.39,0v0c-0.09941,0.13255 -0.07255,0.32059 0.06,0.42l1.7,1.31c-1.06291,2.42825 -0.70564,5.24413 0.93,7.33c0.01915,0.13122 0.11963,0.23572 0.25,0.26z" id="Path 1"/></g></g></g><path d="M1083.22,415.6l-67,6.76c-3.72076,0.37859 -6.43225,3.6986 -6.06,7.42l2.3,22.91c4.82281,-3.41785 11.39987,-2.89719 15.62485,1.2369c4.22498,4.13409 4.88853,10.69827 1.57637,15.59426c-3.31216,4.89599 -9.65197,6.72237 -15.06122,4.33884l2.31,22.91c0.38395,3.71916 3.69851,6.43067 7.42,6.07l67,-6.75c3.72065,-0.38906 6.43087,-3.70651 6.07,-7.43l-6.75,-67c-0.39413,-3.71662 -3.71002,-6.42111 -7.43,-6.06z" id="Path 1" fill="#407bff"/><g id="Group 1" fill="#000000"><path d="M1083.22,415.6l-67,6.76c-3.72076,0.37859 -6.43225,3.6986 -6.06,7.42l2.3,22.91c4.82281,-3.41785 11.39987,-2.89719 15.62485,1.2369c4.22498,4.13409 4.88853,10.69827 1.57637,15.59426c-3.31216,4.89599 -9.65197,6.72237 -15.06122,4.33884l2.31,22.91c0.38395,3.71916 3.69851,6.43067 7.42,6.07l67,-6.75c3.72065,-0.38906 6.43087,-3.70651 6.07,-7.43l-6.75,-67c-0.39413,-3.71662 -3.71002,-6.42111 -7.43,-6.06z" id="Path 1" opacity="0.3"/></g><path d="M1101.5,436.15l-3.1,-1.35l-7.28,1.86c-0.83445,0.21836 -1.57297,0.70719 -2.1,1.39l-1.54,2c-0.67651,0.90339 -0.62212,2.15852 0.13,3l1.74,1.92c0.8677,0.9508 2.33413,1.03941 3.31,0.2l3.95,-3.39c0,0 4.76,-2.23 4.89,-5.63z" id="Path 1" fill="#ffb573"/><path d="M1038.39,423.66l3.22,-0.41c0.89202,-0.10084 1.60756,-0.78367 1.75,-1.67l0.44,-2.56c0.11919,-0.6181 -0.05958,-1.25625 -0.48253,-1.72247c-0.42295,-0.46623 -1.04072,-0.70612 -1.66747,-0.64753l-3.76,0.27c-1.10123,0.0592 -1.94673,0.99864 -1.89,2.1l0.1,2.7c0.01114,0.57423 0.26862,1.11596 0.70684,1.48721c0.43823,0.37125 1.0149,0.53618 1.58316,0.45279z" id="Path 1" fill="#ffb573"/><path d="M1088.5,350.17c-7.94,4 -21.89,2.16 -21.89,2.16c0,0 7.78,-12.72 21.89,-2.16z" id="Path 1" fill="#263238"/></g><g id="Group 1"><path d="M948.78,603.89l-3.99,20.77l-10.1,-2.44l3.99,-20.77z" id="Path 1" fill="#7f3e3b"/><path d="M935.01,618l11.23,2.44c0.36063,0.0705 0.60788,0.40451 0.57,0.77l-0.78,8.25c-0.05207,0.41863 -0.27801,0.79598 -0.62244,1.03955c-0.34443,0.24357 -0.77551,0.33086 -1.18756,0.24045c-3.53,-0.83 -4.58,-1.35 -9.05,-2.32c-5.21,-1.15 -7.06,-0.84 -13.18,-2.18c-3.7,-0.81 -3.53,-4.69 -1.87,-4.7c4.38413,0.01074 8.69313,-1.13809 12.49,-3.33c0.74412,-0.37289 1.60243,-0.44799 2.4,-0.21z" id="Path 1" fill="#263238"/><g id="Group 1" fill="#000000"><path d="M948.79,603.9l-2.06,10.7l-10.11,-2.44l2.06,-10.71z" id="Path 1" opacity="0.2"/></g><path d="M966.36,523.9c11.85,-34.86 21.23,-76 21.23,-76l-33.8,-2.14c0,0 -5,53.38 -7.58,78c-2.7,25.58 -11.09,83.33 -11.09,83.33l15.25,3.09c0,0 14.3,-54.38 15.99,-86.28z" id="Path 1" fill="#263238"/><g id="Group 1" fill="#263238"><path d="M972,467.3l8.2,10.14c-2.09,7.83 -4.53,16.63 -7.21,25.62c-1.53799,-11.85589 -1.86969,-23.83718 -0.99,-35.76z" id="Path 1" opacity="0.2"/></g><path d="M935.34,609.26l14,3.06c0.57801,0.12833 1.15991,-0.19926 1.35,-0.76l1.54,-4.51c0.1078,-0.30898 0.07885,-0.64926 -0.07959,-0.93559c-0.15844,-0.28634 -0.43136,-0.49161 -0.75041,-0.56441l-15.19,-3.55c-0.32314,-0.07648 -0.66357,-0.01081 -0.93508,0.18039c-0.2715,0.1912 -0.44805,0.48959 -0.48492,0.81961l-0.35,5c-0.06524,0.58806 0.32256,1.13099 0.9,1.26z" id="Path 1" fill="#263238"/><g id="Group 1" fill="#ffffff"><path d="M935.34,609.26l14,3.06c0.57801,0.12833 1.15991,-0.19926 1.35,-0.76l1.54,-4.51c0.1078,-0.30898 0.07885,-0.64926 -0.07959,-0.93559c-0.15844,-0.28634 -0.43136,-0.49161 -0.75041,-0.56441l-15.19,-3.55c-0.32314,-0.07648 -0.66357,-0.01081 -0.93508,0.18039c-0.2715,0.1912 -0.44805,0.48959 -0.48492,0.81961l-0.35,5c-0.06524,0.58806 0.32256,1.13099 0.9,1.26z" id="Path 1" opacity="0.1"/></g><path d="M1004.38,603.17l0.63,21.43l-10.25,-0.14l-0.63,-21.43z" id="Path 1" fill="#7f3e3b"/><path d="M994.5,620.06l10.9,0.16c0.36634,-0.00178 0.67389,0.27544 0.71,0.64l0.88,8.24c0.0339,0.42168 -0.11183,0.83806 -0.40129,1.14657c-0.28946,0.3085 -0.69573,0.48043 -1.11871,0.47343c-3.62,-0.11 -4.76,-0.41 -9.33,-0.48c-5.34,-0.09 -6.49,0.58 -12.75,0.49c-3.79,-0.06 -4.4,-3.9 -2.78,-4.24c4.30132,-0.85953 8.29942,-2.83961 11.59,-5.74c0.65095,-0.51427 1.47347,-0.76102 2.3,-0.69z" id="Path 1" fill="#263238"/><g id="Group 1" fill="#000000"><path d="M1004.39,603.18l0.32,11.04l-10.26,-0.14l-0.32,-11.05z" id="Path 1" opacity="0.2"/></g><path d="M1001.83,523.19c-2.9,-36.67 -0.45,-56.45 -4.71,-74.66l-30.76,-1.91c0,0 9.55,53.9 14.82,78.28c5.27,24.38 10.94,83.6 10.94,83.6l15.12,0.19c0,0 1.85,-56.89 -5.41,-85.5z" id="Path 1" fill="#263238"/><path d="M992.16,611.22l14.31,0.22c0.61451,0.00676 1.12765,-0.46691 1.17,-1.08l0.31,-4.72c0.02482,-0.31512 -0.08116,-0.62656 -0.29303,-0.86113c-0.21187,-0.23457 -0.51096,-0.3716 -0.82697,-0.37887l-15.57,-0.48c-0.3507,-0.01263 -0.68798,0.13556 -0.91588,0.40242c-0.2279,0.26686 -0.32148,0.62317 -0.25412,0.96758l1,5c0.10995,0.51358 0.54611,0.89268 1.07,0.93z" id="Path 1" fill="#263238"/><g id="Group 1" fill="#ffffff"><path d="M992.16,611.22l14.31,0.22c0.61451,0.00676 1.12765,-0.46691 1.17,-1.08l0.31,-4.72c0.02482,-0.31512 -0.08116,-0.62656 -0.29303,-0.86113c-0.21187,-0.23457 -0.51096,-0.3716 -0.82697,-0.37887l-15.57,-0.48c-0.3507,-0.01263 -0.68798,0.13556 -0.91588,0.40242c-0.2279,0.26686 -0.32148,0.62317 -0.25412,0.96758l1,5c0.10995,0.51358 0.54611,0.89268 1.07,0.93z" id="Path 1" opacity="0.1"/></g><path d="M965.37,390.21c-1.18,2.55 -2.41,4.81 -3.75,7.14c-1.34,2.33 -2.75,4.59 -4.31,6.81c-1.57728,2.29208 -3.30087,4.47996 -5.16,6.55c-2.06313,2.38331 -4.48157,4.4341 -7.17,6.08l-0.35,0.2c-1.20924,0.71141 -2.66504,0.87155 -4,0.44c-1.95,-0.63 -3.84,-1.34 -5.69,-2.1c-1.85,-0.76 -3.65,-1.6 -5.42,-2.48c-1.77,-0.88 -3.5,-1.81 -5.2,-2.81c-1.7,-1 -3.36,-2 -5,-3.21c-1.21129,-0.85898 -1.64028,-2.4581 -1.02157,-3.80801c0.61871,-1.34991 2.11015,-2.06884 3.55157,-1.71199h0.11c1.79,0.43 3.64,0.95 5.44,1.42l5.41,1.43c1.79,0.49 3.59,0.9 5.36,1.34c1.77,0.44 3.54,0.78 5.28,1.14l-4.31,0.65c1.49723,-1.24171 2.84015,-2.65849 4,-4.22c1.37,-1.76 2.69,-3.7 4,-5.7c1.31,-2 2.5,-4.09 3.68,-6.21c1.18,-2.12 2.38,-4.31 3.44,-6.33l0.06,-0.11c1.6531,-2.75282 5.14353,-3.77404 8.01974,-2.3464c2.87621,1.42765 4.17331,4.82523 2.98026,7.8064z" id="Path 1" fill="#7f3e3b"/><path d="M967.83,372.73c-11.94,1.36 -21,19.85 -21,19.85l12.32,13.11c0,0 5.49,-6.54 11.39,-14.81c6.44,-9.01 6.74,-19.22 -2.71,-18.15z" id="Path 1" fill="#407bff"/><path d="M966.36,375.5c4.59,-1.63 25.15,1 25.15,1c-4,5.16 -7.34,47.89 -7.71,72.45c-4.37,0.6 -21.13,-0.55 -25,-1.45c0.5,-9.64 4.52,-54.86 7.56,-72z" id="Path 1" fill="#ffffff"/><path d="M953.09,388.46c1.11624,-9.1981 8.94451,-16.10211 18.21,-16.06c8.5904,0.06869 17.15139,1.01358 25.55,2.82c2.64269,0.55936 4.94668,2.16403 6.38763,4.44883c1.44095,2.2848 1.89628,5.05537 1.26237,7.68117c-6.33,26.55 -4.66,51.74 -6.35,63.46c-6.02523,2.21538 -12.42468,3.2344 -18.84,3c0,0 0.15,-10.11 1.56,-27.18c1.12,-13.57 3.13,-45.48 7.27,-50.78c0,0 -14.84,-2 -19.43,-0.39c-3.41,19.25 -5.91,77.56 -5.91,77.57c-7.26,-0.52 -10.68,-4.56 -10.57,-5.76c-1.47,-23.59 -0.73,-44.98 0.86,-58.81z" id="Path 1" fill="#407bff"/><path d="M988.67,358.93c-1.39,4 -3,11.09 -0.43,15.07c0.26393,0.37443 0.3462,0.84743 0.22419,1.28899c-0.12201,0.44156 -0.43546,0.80521 -0.85419,0.99101c-4.13081,2.38277 -8.90454,3.41096 -13.65,2.94c-6.45,-0.52 -6,-3.43 -4.34,-5.32c0.39231,-0.43646 0.93545,-0.70803 1.52,-0.76c6.09,-0.73 6.15,-4.4 5.27,-8z" id="Path 1" fill="#7f3e3b"/><g id="Group 1" fill="#000000"><path d="M983.67,361.48l-7.25,3.69c0.22938,0.85222 0.36023,1.72795 0.39,2.61c2.64,0 6.38,-1.77 6.81,-3.8c0.22097,-0.81669 0.23814,-1.67513 0.05,-2.5z" id="Path 1" opacity="0.2"/></g><g id="Group 1" fill="#263238"><ellipse cx="974.12" cy="344.66" rx="6.55" ry="4.89" id="Shape 1"/></g><path d="M992.59,348c-1.34,7.89 -1.73,12.58 -6.11,16.25c-6.59,5.51 -15.84,0.85 -16.84,-7.28c-0.91,-7.31 1.43,-19 9.41,-21.36c7.98,-2.36 14.88,4.49 13.54,12.39z" id="Path 1" fill="#7f3e3b"/><path d="M990.87,354.67c-0.1,0 -0.22,-0.13 -0.33,-0.07c-3.58,2 -4.74,-2.3 -4.52,-5.16c0.14863,-1.92966 1.11246,-3.70457 2.65,-4.88c-3.88,0.44 -7.64,-2.06 -7.7,-4.39c-4.29,1.89 -9.46,2 -11.79,-2c-2.33,-4 1,-9.23 5.44,-7.84c-1.8,-3.22 5.81,-9.66 13.78,-0.16c0.25,-6.89 11.39,0 9.56,6.77c5.16,1.78 9.58,11.58 0.83,13.67c-0.58,9.08 -7.92,4.06 -7.92,4.06z" id="Path 1" fill="#263238"/><path d="M995.09,357.15c-1.21128,1.48614 -2.94073,2.45806 -4.84,2.72c-2.4,0.27 -2.93,-2.17 -1.7,-4.39c1.11,-2 3.69,-4.54 5.83,-3.76c2.14,0.78 2.27,3.53 0.71,5.43z" id="Path 1" fill="#7f3e3b"/><path d="M981.15,348.59c-0.06,0.66 -0.45,1.15 -0.88,1.11c-0.43,-0.04 -0.73,-0.6 -0.67,-1.26c0.06,-0.66 0.45,-1.14 0.88,-1.1c0.43,0.04 0.72,0.6 0.67,1.25z" id="Path 1" fill="#263238"/><path d="M973.4,347.73c-0.06,0.65 -0.45,1.14 -0.88,1.1c-0.43,-0.04 -0.72,-0.6 -0.67,-1.25c0.05,-0.65 0.45,-1.15 0.88,-1.11c0.43,0.04 0.77,0.6 0.67,1.26z" id="Path 1" fill="#263238"/><path d="M976.43,348.1c-0.95566,1.91713 -2.17037,3.69377 -3.61,5.28c0.83966,0.73192 1.95877,1.05741 3.06,0.89z" id="Path 1" fill="#630f0f"/><path d="M977.9,357.45c1.46729,0.10295 2.91274,-0.39935 4,-1.39c0.07456,-0.07732 0.07232,-0.20044 -0.005,-0.275c-0.07732,-0.07456 -0.20044,-0.07232 -0.275,0.005c-1.23548,1.09298 -2.91976,1.52799 -4.53,1.17c-0.0493,-0.01176 -0.10128,-0.00218 -0.14316,0.02637c-0.04188,0.02855 -0.06978,0.07344 -0.07684,0.12363c-0.01884,0.1043 0.04695,0.20519 0.15,0.23c0.32,0.05 0.6,0.09 0.88,0.11z" id="Path 1" fill="#263238"/><path d="M983.71,347c0.0625,0.01451 0.1275,0.01451 0.19,0c0.09373,-0.04141 0.16677,-0.11891 0.20254,-0.21493c0.03577,-0.09602 0.03125,-0.20242 -0.01254,-0.29507c-0.47636,-1.14753 -1.47222,-1.99847 -2.68,-2.29c-0.20914,-0.03014 -0.40424,0.11175 -0.44,0.32c-0.03014,0.20914 0.11175,0.40424 0.32,0.44v0c0.95222,0.24554 1.73146,0.92831 2.1,1.84c0.06783,0.11471 0.18717,0.1893 0.32,0.2z" id="Path 1" fill="#263238"/><path d="M970.15,344.54c0.12587,0.03354 0.26018,0.00369 0.36,-0.08c0.72279,-0.65497 1.71452,-0.92612 2.67,-0.73c0.20157,0.05787 0.41192,-0.05849 0.47,-0.26c0.05842,-0.2041 -0.05714,-0.41743 -0.26,-0.48c-1.20754,-0.27503 -2.47329,0.05727 -3.39,0.89c-0.07206,0.07137 -0.11261,0.16858 -0.11261,0.27c0,0.10142 0.04054,0.19863 0.11261,0.27c0.03821,0.05285 0.09005,0.09432 0.15,0.12z" id="Path 1" fill="#263238"/><path d="M1006.88,386.81c0.65,1.27 1.18,2.37 1.7,3.56c0.52,1.19 1,2.34 1.52,3.52c1,2.36 1.87,4.76 2.69,7.19c1.66771,4.91504 2.94501,9.95401 3.82,15.07l0.27,2l0.14,1v0.24v0.44c0,0.32 0.05,0.64 0.05,1c-0.03874,1.82271 -0.40104,3.62404 -1.07,5.32c-0.99573,2.5898 -2.26279,5.06693 -3.78,7.39c-1.37719,2.17459 -2.86931,4.27424 -4.47,6.29c-1.5685,2.00625 -3.23729,3.93204 -5,5.77c-1.04693,1.10826 -2.74712,1.28385 -3.99844,0.41293c-1.25132,-0.87092 -1.6772,-2.52625 -1.00156,-3.89293v-0.08c2.07,-4.31 4.26,-8.67 6,-12.92c0.45,-1.06 0.85,-2.12 1.2,-3.15c0.34841,-0.96176 0.63893,-1.94352 0.87,-2.94c0.16225,-0.61942 0.21971,-1.26162 0.17,-1.9c0,0 0,0.06 0,0l-0.05,-0.2l-0.19,-0.83l-0.37,-1.65c-1.15361,-4.47808 -2.56598,-8.88548 -4.23,-13.2c-0.8,-2.2 -1.71,-4.37 -2.59,-6.55c-0.44,-1.08 -0.91,-2.16 -1.38,-3.23l-1.4,-3.12l-0.08,-0.18c-1.46355,-3.06518 -0.16518,-6.73645 2.9,-8.2c3.06518,-1.46355 6.73645,-0.16518 8.2,2.9z" id="Path 1" fill="#7f3e3b"/><path d="M997.88,375.5c13.32,3.36 17,20.39 17,20.39l-16.54,11.86c0,0 -4.1,-4.29 -5.34,-14.37c-0.57,-4.81 2.18,-18.01 4.88,-17.88z" id="Path 1" fill="#407bff"/><path d="M999.93,440l-7.7,2.88l5.9,7.9c0,0 6.65,-3.45 5.39,-7.28z" id="Path 1" fill="#7f3e3b"/><path d="M986.5,444c-2.07385,-0.34865 -4.2026,-0.15575 -6.18,0.56l3.82,-22.7c0.61493,-3.69055 -1.87146,-7.18312 -5.56,-7.81l-66.4,-11.18c-3.68372,-0.60924 -7.16818,1.87009 -7.8,5.55l-3.88,22.75c1.97527,-0.72527 4.10653,-0.9184 6.18,-0.56c5.0527,0.84765 9.0402,4.75714 9.9875,9.79211c0.9473,5.03497 -1.34675,10.1263 -5.74591,12.75226c-4.39916,2.62596 -9.96932,2.22896 -13.95159,-0.99437l-3.83,22.7c-0.61493,3.69055 1.87146,7.18312 5.56,7.81l66.4,11.18c3.68592,0.60956 7.1733,-1.86867 7.81,-5.55l3.82,-22.71c3.98584,3.17108 9.52056,3.53735 13.88951,0.91917c4.36896,-2.61818 6.65578,-7.67167 5.73884,-12.68184c-0.91694,-5.01018 -4.84531,-8.92619 -9.85836,-9.82732z" id="Path 1" fill="#407bff"/><g id="Group 1" fill="#ffffff"><path d="M986.5,444c-2.07385,-0.34865 -4.2026,-0.15575 -6.18,0.56l3.82,-22.7c0.61493,-3.69055 -1.87146,-7.18312 -5.56,-7.81l-66.4,-11.18c-3.68372,-0.60924 -7.16818,1.87009 -7.8,5.55l-3.88,22.75c1.97527,-0.72527 4.10653,-0.9184 6.18,-0.56c5.0527,0.84765 9.0402,4.75714 9.9875,9.79211c0.9473,5.03497 -1.34675,10.1263 -5.74591,12.75226c-4.39916,2.62596 -9.96932,2.22896 -13.95159,-0.99437l-3.83,22.7c-0.61493,3.69055 1.87146,7.18312 5.56,7.81l66.4,11.18c3.68592,0.60956 7.1733,-1.86867 7.81,-5.55l3.82,-22.71c3.98584,3.17108 9.52056,3.53735 13.88951,0.91917c4.36896,-2.61818 6.65578,-7.67167 5.73884,-12.68184c-0.91694,-5.01018 -4.84531,-8.92619 -9.85836,-9.82732z" id="Path 1" opacity="0.6"/></g><path d="M988.63,450.64l2.53,2.42c1.00592,0.96771 2.56595,1.06097 3.68,0.22l3.29,-2.47l-5.9,-7.9l-3.65,3.66c-0.54269,0.54135 -0.84351,1.27908 -0.83409,2.04555c0.00942,0.76647 0.32826,1.49659 0.88409,2.02445z" id="Path 1" fill="#7f3e3b"/><path d="M914.5,405l0.92,-3.41c0.31584,-0.82238 1.11967,-1.35291 2,-1.32v0c1.30282,-0.05315 2.60357,0.14723 3.83,0.59l5.2,1.92l-0.25,2.12c-0.21,1.82 -2.24,3.34 -4.54,3.41c-1.54408,0.02059 -3.08506,-0.14391 -4.59,-0.49l-0.56,-0.12c-0.64511,-0.04552 -1.2383,-0.37008 -1.62448,-0.88883c-0.38618,-0.51875 -0.52696,-1.18011 -0.38552,-1.81117z" id="Path 1" fill="#7f3e3b"/></g><g id="Group 1"><path d="M832.59,357.93c3.33,-3.87 8.34,-13.92 -1.08,-17.76c-6.95,-2.84 -21.7,-1.39 -30.17,11.8c-5.79,2 -7.5,14.88 5.87,17.59c13.37,2.71 25.38,-11.63 25.38,-11.63z" id="Path 1" fill="#263238"/><path d="M862.8,606.08l-15.28,1.27l2.59,17.96l12.77,-1.04z" id="Path 1" fill="#ffc3bd"/><g id="Group 1" fill="#000000"><path d="M862.8,606.09l-15.29,1.27l1.46,10.06l13.88,-1.15z" id="Path 1" opacity="0.2"/></g><path d="M833.59,553.21c-6,-23 -21.54,-50.38 -11.69,-72.51l42.81,-0.13c0,0 1.06,45.55 1.36,67c0.3,22.43 -1.57,64.63 -1.57,64.63l-17.51,1.33c0,0 -12,-34.53 -13.4,-60.32z" id="Path 1" fill="#407bff"/><path d="M846.12,614.22l18.92,-1.39c0.33358,-0.02873 0.59662,-0.296 0.62,-0.63l0.4,-7c0.01346,-0.19667 -0.0617,-0.38906 -0.20491,-0.52453c-0.14321,-0.13547 -0.33947,-0.19983 -0.53509,-0.17547l-21,2.79c-0.19323,0.02106 -0.3669,0.12749 -0.47337,0.29011c-0.10648,0.16262 -0.13459,0.36435 -0.07663,0.54989l1.66,5.62c0.09544,0.29604 0.37958,0.48958 0.69,0.47z" id="Path 1" fill="#263238"/><g id="Group 1" fill="#000000"><path d="M821.75,502.47c-0.16583,5.43212 0.05473,10.86916 0.66,16.27c2.09,7.23 4.76,14.47 7.16,21.49c3.14,-19.88 3.15,-43.05 -7.82,-37.76z" id="Path 1" opacity="0.2"/></g><path d="M806.24,607.2l-15.34,0.15l-0.02,18.1l12.82,-0.1z" id="Path 1" fill="#ffc3bd"/><path d="M789.67,622.67c0.03047,-0.20376 0.14562,-0.38516 0.31704,-0.49944c0.17142,-0.11428 0.38315,-0.15081 0.58296,-0.10056c3.85,1.53 11.15,0.36 13.91,-0.17c0.61578,-0.12712 1.25671,0.00685 1.77,0.37c2.25763,1.44837 4.70394,2.57899 7.27,3.36c0.5505,1.4716 0.68881,3.06557 0.4,4.61h-25.86c0.72963,-2.47841 1.26788,-5.00918 1.61,-7.57z" id="Path 1" fill="#263238"/><path d="M848.42,622.67c0.03047,-0.20376 0.14562,-0.38516 0.31704,-0.49944c0.17142,-0.11428 0.38315,-0.15081 0.58296,-0.10056c3.85,1.53 11.15,0.36 13.91,-0.17c0.61578,-0.12712 1.25671,0.00685 1.77,0.37c2.94,2.08 10.78,3.36 10.78,3.36c0.55067,1.47174 0.6856,3.06667 0.39,4.61h-29.36c0.72963,-2.47841 1.26788,-5.00918 1.61,-7.57z" id="Path 1" fill="#263238"/><g id="Group 1" fill="#000000"><path d="M806.24,607.21l-15.35,0.14l-0.01,10.14l13.94,-0.12z" id="Path 1" opacity="0.2"/></g><path d="M788.74,545.77c-2.08,-23.23 -8.6,-54.52 -1.2,-65.2h50.1c0,0 -10.21,46.32 -14.4,67.76c-4.35,22.29 -16.86,65.09 -16.86,65.09l-16.59,0.05c0,0 -6.29,-41.18 -1.05,-67.7z" id="Path 1" fill="#407bff"/><g id="Group 1" fill="#ffffff"><path d="M791.75,608.72c-0.22113,-0.00323 -0.41498,-0.14862 -0.48,-0.36c-1.19,-4 -1,-49.95 2,-62.53c0,-1.66 -0.35,-4.92 -0.75,-9.05c-1.37,-14 -3.91,-40 -0.12,-54.75c0.06904,-0.27614 0.34886,-0.44404 0.625,-0.375c0.27614,0.06904 0.44404,0.34886 0.375,0.625c-3.75,14.59 -1.22,40.49 0.14,54.41c0.41,4.2 0.74,7.51 0.76,9.19c0.00496,0.04319 0.00496,0.08681 0,0.13c-2.88,11.9 -3.16,58.2 -2,62.07c0.07811,0.26214 -0.06893,0.53839 -0.33,0.62c-0.06987,0.02773 -0.14627,0.03468 -0.22,0.02z" id="Path 1" opacity="0.2"/></g><path d="M788.64,614.09h18.79c0.31065,0.00906 0.58001,-0.21327 0.63,-0.52l1.24,-6.67c0.0362,-0.20447 -0.0216,-0.41436 -0.15737,-0.57147c-0.13577,-0.15711 -0.33508,-0.24472 -0.54263,-0.23853l-20.46,0.91c-0.17452,0.00474 -0.33925,0.08169 -0.45488,0.21249c-0.11564,0.1308 -0.17181,0.30372 -0.15512,0.47751l0.42,5.76c0.03088,0.35918 0.32951,0.63617 0.69,0.64z" id="Path 1" fill="#263238"/><path d="M854.66,399.66c1,4 1.92,8 2.81,12c0.89,4 1.73,8 2.51,12l1.2,6l1.12,6c0.77,4 1.45,8.06 2.15,12.1l-1.63,-3.65c0.21792,0.74834 0.68778,1.39836 1.33,1.84c1.28003,0.86483 2.72262,1.46023 4.24,1.75c2.0226,0.46695 4.08544,0.7382 6.16,0.81c1.11,0.06 2.25,0.1 3.4,0.08c0.57,0 1.15,0 1.73,0c0.58,0 1.21,0 1.61,0l1.42,0.1c2.45462,0.15749 4.50888,1.92006 5.03755,4.32224c0.52867,2.40218 -0.59584,4.86432 -2.75755,6.03776c-0.8,0.44 -1.37,0.77 -2.05,1.12c-0.68,0.35 -1.31,0.65 -2,1c-1.34,0.58 -2.71,1.13 -4.13,1.59c-1.44101,0.47213 -2.90648,0.86603 -4.39,1.18c-1.56255,0.31143 -3.14188,0.5318 -4.73,0.66c-1.71575,0.12227 -3.43887,0.0955 -5.15,-0.08c-1.90184,-0.15968 -3.77633,-0.55608 -5.58,-1.18c-2.02343,-0.67423 -3.9447,-1.62309 -5.71,-2.82c-1.86158,-1.28951 -3.51991,-2.85009 -4.92,-4.63c-0.60398,-0.75082 -1.05268,-1.61422 -1.32,-2.54l-0.31,-1.11c-1.1,-3.94 -2.23,-7.87 -3.27,-11.83l-1.59,-5.92l-1.51,-5.94c-1,-4 -2,-7.94 -2.91,-11.92c-0.91,-3.98 -1.82,-8 -2.61,-12v0c-1.17713,-5.95172 2.59874,-11.75859 8.51626,-13.09707c5.91752,-1.33849 11.82489,2.27813 13.32374,8.15707z" id="Path 1" fill="#ffc3bd"/><path d="M880.59,449.58l0.21,6.46c2.61,6.27 10.09,1.51 10.09,1.51l4.52,-0.83c1.62486,-0.41376 2.71471,-1.93871 2.58,-3.61l-0.12,-4.52c0.06293,-1.94026 -1.432,-3.57715 -3.37,-3.69l-4,0.08c-1.16734,0.02004 -2.31149,0.32927 -3.33,0.9z" id="Path 1" fill="#ffc3bd"/><path d="M847,388.52c9.2,4.84 15.21,21.92 15.21,21.92c-1.94,8 -9.76,22.59 -17,22.5c0,0 -10.63,-13.71 -11.78,-23.63c-1.4,-11.99 -5.03,-30.57 13.57,-20.79z" id="Path 1" fill="#263238"/><path d="M838.5,385.68c-14.19812,-1.34989 -28.50213,-1.12183 -42.65,0.68c-8.18,1.15 -14,6.24 -13,23c2,34 -1.1,60.5 3.22,72.72c0,0 62.92,18 80.86,0.75c4.36,-40.91 -10.32,-74.87 -17,-89c-2.12733,-4.52462 -6.45911,-7.61334 -11.43,-8.15z" id="Path 1" fill="#263238"/><path d="M833.77,389.4c-1.63,-1.6 -3.34,-0.67 -4.13,-3.08c-0.34834,-1.89195 -0.0303,-3.84615 0.9,-5.53l-19.41,-10.48c0.38,7.14 0.67,12.78 -2.5,15.62c-0.92,5.32 9,10.63 22.21,10.71c8.41,0.05 5.28,-4.94 2.93,-7.24z" id="Path 1" fill="#ffc3bd"/><g id="Group 1" fill="#000000"><path d="M830.25,381.39l-15.32,-3.83c3.87,6.09 10.84,9.42 14.59,7.95c-0.10721,-1.41288 0.14388,-2.82997 0.73,-4.12z" id="Path 1" opacity="0.2"/></g><path d="M823.91,346.45c-10.14,-2.25 -18.9,6.17 -16.94,15.35c1.96,9.18 3.51,15.38 9.86,18.5c12.62,6.22 18.78,0.22 19.81,-9.37c0.93,-8.64 -2.44,-22.21 -12.73,-24.48z" id="Path 1" fill="#ffc3bd"/><g id="Group 1" fill="#000000"><path d="M821.92,362.75c-1.19154,-0.29821 -2.4526,-0.11498 -3.51,0.51c1.19217,0.06292 2.38503,-0.1104 3.51,-0.51z" id="Path 1" opacity="0.2"/></g><g id="Group 1" fill="#000000"><path d="M821.99,363.6c-1.13462,-0.05325 -2.23409,0.4012 -3,1.24c1.07817,-0.19061 2.10189,-0.61375 3,-1.24z" id="Path 1" opacity="0.2"/></g><path d="M808.25,369.56c5.67,1.27 8,-1.57 8,-4.75c0,-3.38 -3.19,-9.09 -6.69,-10.14c1.25,-7.5 21.92,3 19.95,-7.39c0,0 -0.56,-1.78 -5.9,-2.78c-5.34,-1 -19.61,2.22 -18.61,12.89c1,10.67 3.25,12.17 3.25,12.17z" id="Path 1" fill="#263238"/><path d="M801.03,352.5c1.38794,-2.78491 1.7797,-5.96132 1.11,-9c0,0 6.22,4.11 -1.11,9z" id="Path 1" fill="#263238"/><path d="M827.11,372.41c0.42414,-0.03194 0.8453,-0.09545 1.26,-0.19c0.06513,-0.01432 0.12184,-0.05407 0.15752,-0.1104c0.03568,-0.05634 0.04737,-0.12459 0.03248,-0.1896c-0.01167,-0.06659 -0.05088,-0.12517 -0.10799,-0.16134c-0.05711,-0.03617 -0.12683,-0.04658 -0.19201,-0.02866c-2.1057,0.5137 -4.33032,0.00204 -6,-1.38c-0.04712,-0.04889 -0.1121,-0.07651 -0.18,-0.07651c-0.0679,0 -0.13288,0.02762 -0.18,0.07651c-0.09651,0.10059 -0.09651,0.25941 0,0.36c1.43917,1.24109 3.31581,1.85343 5.21,1.7z" id="Path 1" fill="#263238"/><path d="M804.66,370c1.31061,1.77679 3.27584,2.95737 5.46,3.28c2.91,0.4 4,-2.29 2.88,-4.83c-1,-2.29 -3.72,-5.25 -6.48,-4.49c-2.76,0.76 -3.44,3.85 -1.86,6.04z" id="Path 1" fill="#ffc3bd"/><path d="M823.57,362.85c0.12,0.81 0.64,1.41 1.17,1.33c0.53,-0.08 0.87,-0.81 0.75,-1.62c-0.12,-0.81 -0.63,-1.4 -1.16,-1.32c-0.53,0.08 -0.83,0.76 -0.76,1.61z" id="Path 1" fill="#263238"/><path d="M833.1,361.57c0.12,0.82 0.64,1.41 1.17,1.33c0.53,-0.08 0.87,-0.8 0.75,-1.61c-0.12,-0.81 -0.63,-1.41 -1.16,-1.33c-0.53,0.08 -0.87,0.8 -0.76,1.61z" id="Path 1" fill="#263238"/><path d="M829.5,362.64l0.46,6.86c0,0 2.25,0.39 3.47,-0.91c-0.77448,-2.2893 -2.1284,-4.33912 -3.93,-5.95z" id="Path 1" fill="#ed847e"/><path d="M820.43,361c-0.16682,0.0454 -0.34509,-0.00445 -0.46416,-0.1298c-0.11907,-0.12534 -0.15972,-0.30593 -0.10584,-0.4702c0.38579,-1.50798 1.47191,-2.73916 2.92,-3.31c0.25117,-0.07863 0.51881,0.05965 0.6,0.31c0.07925,0.25376 -0.0583,0.52443 -0.31,0.61v0c-1.14321,0.46626 -1.9944,1.45127 -2.29,2.65c-0.04606,0.1686 -0.18013,0.29884 -0.35,0.34z" id="Path 1" fill="#263238"/><path d="M836.23,357.93c-0.16086,0.01485 -0.31735,-0.05766 -0.41,-0.19c-0.69484,-1.00794 -1.83585,-1.61573 -3.06,-1.63c-0.27614,0 -0.5,-0.22386 -0.5,-0.5c0,-0.27614 0.22386,-0.5 0.5,-0.5c1.54637,-0.01235 3.00028,0.73516 3.89,2c0.07429,0.10343 0.10443,0.23213 0.0838,0.35779c-0.02063,0.12566 -0.09035,0.23797 -0.1938,0.31221c-0.07792,0.091 -0.19028,0.14537 -0.31,0.15z" id="Path 1" fill="#263238"/><path d="M894.5,423.33c-2.09364,0.14759 -4.11299,0.83679 -5.86,2l-1.81,-23c-0.30808,-3.72424 -3.5637,-6.502 -7.29,-6.22l-67.13,5.29c-3.72155,0.31332 -6.49641,3.56553 -6.22,7.29l5.3,67.13c0.29752,3.72964 3.56003,6.51329 7.29,6.22l67.12,-5.3c3.72824,-0.30291 6.51182,-3.5601 6.23,-7.29l-1.82,-22.95c1.90592,0.89314 4.01226,1.27235 6.11,1.1c6.2457,-1.0513 10.65305,-6.70036 10.15356,-13.01419c-0.49949,-6.31383 -5.74025,-11.19963 -12.07356,-11.25581z" id="Path 1" fill="#407bff"/><path d="M797.16,414.15l-1,1.84l-1.15,2.06c-0.74,1.4 -1.5,2.8 -2.19,4.22c-1.38659,2.7669 -2.62826,5.60406 -3.72,8.5c-0.53,1.4 -1,2.79 -1.35,4.16c-0.39929,1.31166 -0.71328,2.64779 -0.94,4c-0.41964,2.17493 -0.49052,4.40279 -0.21,6.6l-2.3,-4c0.95757,1.3134 2.09929,2.48206 3.39,3.47c1.69662,1.35397 3.47681,2.59977 5.33,3.73c1.93,1.24 4,2.43 6.08,3.62l3.18,1.77c1,0.6 2.2,1.2 3.15,1.78l0.48,0.29c2.1822,1.32258 3.20959,3.94179 2.50859,6.39531c-0.70101,2.45353 -2.95706,4.13461 -5.50859,4.10469c-1.52,0 -2.82,-0.1 -4.22,-0.21c-1.4,-0.11 -2.73,-0.28 -4.09,-0.5c-2.76408,-0.41505 -5.49943,-1.00287 -8.19,-1.76c-2.84757,-0.79805 -5.62381,-1.83161 -8.3,-3.09c-3.1636,-1.45707 -6.07106,-3.41563 -8.61,-5.8c-0.91357,-0.87119 -1.60019,-1.95261 -2,-3.15l-0.28,-0.86c-1.56587,-4.74955 -2.15102,-9.76759 -1.72,-14.75c0.33968,-4.34022 1.17169,-8.62775 2.48,-12.78c1.21828,-3.90163 2.72923,-7.70576 4.52,-11.38c0.87,-1.8 1.76,-3.58 2.76,-5.31c0.49,-0.87 1,-1.74 1.52,-2.6l0.82,-1.3l0.43,-0.66l0.52,-0.77c3.34048,-5.05463 10.09713,-6.53252 15.24281,-3.33407c5.14568,3.19845 6.81112,9.91132 3.75719,15.14407z" id="Path 1" fill="#ffc3bd"/><path d="M789.35,388.52c-16.58,8.86 -22.76,28.65 -22.76,28.65c3.28,6.25 23.06,13 30.5,11.16c0,0 7.13,-13 8.6,-24.62c1.36,-10.77 -6.63,-20.38 -16.34,-15.19z" id="Path 1" fill="#263238"/><path d="M800.95,457l0.34,6.46c2.74,6.22 10.12,1.31 10.12,1.31l4.51,-0.92c1.61554,-0.44546 2.67266,-1.99309 2.5,-3.66l-0.2,-4.51c0.05113,-1.95286 -1.46863,-3.58816 -3.42,-3.68l-4,0.16c-1.16924,0.0534 -2.30678,0.39707 -3.31,1z" id="Path 1" fill="#ffc3bd"/></g></g><text x="409.9113" y="146.55638" transform="scale(2.32929,1.77083)" id="PointText 1" fill="url(#color-1)" font-family="font-NASDAQER" font-weight="normal" font-size="40" text-anchor="middle">XIANZE</text></g></g></g></g></svg>